<svg id="Layer_1" data-name="Layer 1" xmlns="http://www.w3.org/2000/svg" viewBox="0 0 1426.794 1081.913"><defs><style>.cls-1{fill:#fff;}</style></defs><rect id="rect3993" class="cls-1" x="88.394" y="441.635" width="16.771" height="640.278"/><rect id="rect3995" class="cls-1" x="0.001" y="394.353" width="16.771" height="687.56"/><rect id="rect4001" class="cls-1" x="0.001" y="1065.142" width="105.164" height="16.771"/><path id="path4143" class="cls-1" d="M824.391,547.624c-107.091,8.358-215.969,25.912-331.977,64.822l1.311,4.116-.205.065,17.734,55.748C414.3,703.479,312.164,749.4,200.722,817.6c-1.72,1.052-8.988,7.21-9.884,9.058l14.039,9.226c79-48.7,153.036-86.009,223.783-114.743L455.6,787.1c-56.206,22.78-114.7,51.207-176.366,86.835L289.4,887.79c235-135.779,420.271-164.639,611.076-172.179,2.669-.074,4.92-.1,7.526,0,190.806,7.54,376.072,36.4,611.077,172.179l10.164-13.854c-61.665-35.628-120.16-64.055-176.366-86.835l26.938-65.965c70.746,28.734,144.784,66.04,223.783,114.743l14.038-9.226c-.9-1.848-8.164-8.006-9.884-9.058-111.441-68.194-213.576-114.116-310.531-145.22l17.734-55.748-.2-.065,1.311-4.116c-116.009-38.91-224.886-56.464-331.977-64.822a141.312,141.312,0,0,1-9.436,16.487c-.126.189-.261.368-.388.556,104.056,7.623,209.106,23.589,320.728,59.416l-13.758,43.242c-129.869-39.727-250.713-53.2-372.51-58.337a74.4,74.4,0,0,0-8.961,0c-121.8,5.135-242.641,18.61-372.51,58.337l-13.758-43.242c111.622-35.827,216.672-51.793,320.728-59.416-.127-.188-.262-.367-.388-.556A141.312,141.312,0,0,1,824.391,547.624Zm83.591,79.081c120.937,5.1,239.962,18.28,367.9,57.42l-21.6,67.892c-121.158-37.132-233.155-49.7-345.594-54.145-3-.11-5.71-.091-8.918,0-112.438,4.443-224.436,17.013-345.594,54.145l-21.6-67.892c127.94-39.14,246.966-52.32,367.9-57.42C903.168,626.608,905.335,626.63,907.982,626.705ZM516.589,689.164l21.6,67.892c-22.011,7.095-44.32,14.978-67.013,23.819L444.23,714.893C468.717,705.318,492.811,696.8,516.589,689.164Zm775.292,0c23.779,7.636,47.872,16.154,72.36,25.729L1337.3,780.875c-22.692-8.841-45-16.724-67.012-23.819Z" transform="translate(-190.838 -432.304)"/><path id="path4344" class="cls-1" d="M903.9,432.3c-22.207,0-41.535,10.181-54.8,25.221s-21.131,35.252-21.131,57.488S835.836,557.46,849.1,572.5s32.591,25.234,54.8,25.234,41.534-10.194,54.8-25.234,21.112-35.251,21.112-57.487-7.849-42.448-21.112-57.488S926.1,432.3,903.9,432.3Zm0,11.26c15.337,0,29.991,7.075,41.331,19.934s18.7,31.178,18.7,51.515-7.364,38.668-18.7,51.527-25.994,19.934-41.331,19.934-29.991-7.075-41.331-19.934-18.7-31.191-18.7-51.527,7.364-38.656,18.7-51.515S888.561,443.564,903.9,443.564Z" transform="translate(-190.838 -432.304)"/><rect id="rect4540" class="cls-1" x="1321.629" y="441.635" width="16.771" height="640.278"/><rect id="rect4542" class="cls-1" x="1410.022" y="394.353" width="16.771" height="687.56"/><rect id="rect4544" class="cls-1" x="1321.629" y="1065.142" width="105.164" height="16.771"/><rect class="cls-1" x="1330.014" y="524.348" width="88.393" height="17.217"/><rect class="cls-1" x="8" y="524.348" width="88.393" height="17.217"/><line class="cls-1" x1="1331.407" y1="586" x2="1419.8" y2="586"/><rect class="cls-1" x="8" y="682.435" width="88.393" height="17.217"/><rect class="cls-1" x="1328.052" y="682.435" width="88.393" height="17.217"/></svg>