<?xml version="1.0" encoding="utf-8"?>
<!-- Generator: Adobe Illustrator 24.1.1, SVG Export Plug-In . SVG Version: 6.00 Build 0)  -->
<svg version="1.1" id="Layer_1" focusable="false" xmlns="http://www.w3.org/2000/svg" xmlns:xlink="http://www.w3.org/1999/xlink"
	 x="0px" y="0px" viewBox="0 0 496 512" style="enable-background:new 0 0 496 512;" xml:space="preserve">
<style type="text/css">
	.st0{fill:#FFFFFF;}
</style>
<g>
	<path class="st0" d="M356.3,332.3c2.2-5.3,1.2-8.2-1.2-10.9c-1.7-1.2-3.5-1.5-4.7-1.5c-1.4,0-4,0.4-6.1,2.8
		c-22.7,28.5-57.8,44.9-96.4,44.9c-38.5,0-73.6-16.3-96.2-44.8c-2.7-3-4.8-3-5.5-3c-3.1,0-6.6,2.3-8.1,5.5c-0.8,1.8-1.4,4.3,1.5,8
		c33.1,41.2,75.2,49.8,104.7,49.8c25.3,0,51.6-6.3,74.1-17.7C341.1,354,352.9,340.8,356.3,332.3z"/>
	<path class="st0" d="M418.4,415.6c18.5-21.2,32.8-46.1,42.6-74.1c9.5-27.2,14.3-55.9,14.3-85.5s-4.8-58.4-14.3-85.5
		c-9.8-28-24.1-52.9-42.6-74C377.3,49.3,318.4,24.3,248,24c-70.4,0.3-129.3,25.4-170.4,72.4c-18.5,21.2-32.8,46.1-42.6,74.1
		c-9.5,27.2-14.3,55.9-14.3,85.5s4.8,58.4,14.3,85.5c9.8,28,24.1,52.9,42.6,74c41.1,47.1,100,72.1,170.4,72.4
		C318.4,487.7,377.3,462.6,418.4,415.6z M248.3,472H248h-0.3C101.5,469.4,34.9,358.2,34.9,256S101.5,42.6,247.7,40h0.3h0.3
		c146.2,2.6,212.8,113.8,212.8,216C461.1,358.2,394.5,469.4,248.3,472z"/>
</g>
<path class="st0" d="M327.1,164.6c-44-3.5-59.9,102-42.3,63.3c8.1-17.9,23-52.5,42.3-51.2c19.3-1.4,34.9,37.8,42.5,54.9
	C386.8,270.4,371.4,161.2,327.1,164.6z"/>
<path class="st0" d="M167.9,159.4c-44-3.5-59.9,102-42.3,63.3c8.1-17.9,24-52.6,43.4-51.2c19.3-1.4,33.9,37.9,41.4,54.9
	C227.6,265.2,212.2,156,167.9,159.4z"/>
</svg>
